<svg xmlns="http://www.w3.org/2000/svg" xmlns:xlink="http://www.w3.org/1999/xlink" width="2000" zoomAndPan="magnify" viewBox="0 0 1500 1499.999933" height="2000" preserveAspectRatio="xMidYMid meet" version="1.0"><defs><g/><clipPath id="26925ec952"><path d="M 3 0.09375 L 1330.382812 0.09375 L 1330.382812 819.289062 L 3 819.289062 Z M 3 0.09375 " clip-rule="nonzero"/></clipPath><clipPath id="ed701b4c10"><path d="M 334 912 L 1076 912 L 1076 1122.238281 L 334 1122.238281 Z M 334 912 " clip-rule="nonzero"/></clipPath><clipPath id="9f96e4e81b"><rect x="0" width="742" y="0" height="211"/></clipPath><clipPath id="1cac3f5f7b"><rect x="0" width="1333" y="0" height="1123"/></clipPath></defs><rect x="-150" width="1800" fill="#ffffff" y="-149.999993" height="1799.99992" fill-opacity="1"/><rect x="-150" width="1800" fill="#ffffff" y="-149.999993" height="1799.99992" fill-opacity="1"/><g transform="matrix(1, 0, 0, 1, 84, 180)"><g clip-path="url(#1cac3f5f7b)"><g clip-path="url(#26925ec952)"><path fill="#000000" d="M 713.019531 189.285156 L 692.933594 201.738281 L 758.671875 67.933594 C 779.089844 26.410156 821.355469 0.09375 867.613281 0.09375 C 914.289062 0.09375 956.800781 26.847656 977.023438 68.925781 L 1237.171875 608.828125 C 1241.664062 618.199219 1248.910156 625.96875 1257.949219 631.121094 C 1274.230469 640.40625 1294.289062 640.019531 1310.214844 630.15625 L 1330.300781 617.703125 L 1264.558594 751.507812 C 1244.144531 793.03125 1201.90625 819.347656 1155.617188 819.347656 C 1108.945312 819.347656 1066.429688 792.589844 1046.207031 750.515625 L 786.058594 210.609375 C 781.566406 201.242188 774.320312 193.472656 765.285156 188.320312 C 749 179.035156 728.945312 179.417969 713.019531 189.285156 Z M 289.125 188.320312 C 298.164062 193.472656 305.410156 201.242188 309.902344 210.609375 L 570.050781 750.515625 C 590.246094 792.589844 632.785156 819.347656 679.460938 819.347656 C 725.71875 819.347656 767.984375 793.03125 788.402344 751.507812 L 854.140625 617.703125 L 834.054688 630.15625 C 818.128906 640.046875 798.070312 640.40625 781.789062 631.121094 C 772.75 625.96875 765.503906 618.199219 761.015625 608.828125 L 500.867188 68.925781 C 480.640625 26.847656 438.128906 0.09375 391.457031 0.09375 C 345.195312 0.09375 302.929688 26.410156 282.515625 67.933594 L 216.773438 201.738281 L 236.859375 189.285156 C 252.785156 179.417969 272.84375 179.035156 289.125 188.320312 Z M 8.976562 675.898438 L 44.929688 750.542969 C 65.125 792.617188 107.667969 819.375 154.339844 819.375 C 200.601562 819.375 242.867188 793.058594 263.28125 751.535156 L 329.023438 617.730469 L 308.9375 630.183594 C 293.011719 640.078125 272.953125 640.433594 256.667969 631.148438 C 247.632812 625.996094 240.386719 618.226562 235.894531 608.855469 L 180.046875 492.960938 C 158.667969 448.597656 95.597656 448.351562 73.886719 492.550781 L 9.195312 624.203125 C 1.175781 640.488281 1.121094 659.558594 8.976562 675.898438 Z M 8.976562 675.898438 " fill-opacity="1" fill-rule="nonzero"/></g><g clip-path="url(#ed701b4c10)"><g transform="matrix(1, 0, 0, 1, 334, 912)"><g clip-path="url(#9f96e4e81b)"><g fill="#000000" fill-opacity="1"><g transform="translate(0.457781, 154.28526)"><g><path d="M 55.78125 -144.140625 L 94.265625 -43.15625 L 133.15625 -144.140625 L 171.828125 -144.140625 L 171.828125 0 L 147.40625 0 L 147.40625 -119.71875 L 147 -119.71875 L 103.21875 0 L 85.3125 0 L 41.53125 -119.71875 L 41.125 -119.71875 L 41.125 0 L 16.6875 0 L 16.6875 -144.140625 Z M 55.78125 -144.140625 "/></g></g></g><g fill="#000000" fill-opacity="1"><g transform="translate(187.056137, 154.28526)"><g><path d="M 29.3125 -144.140625 L 64.75 -86.734375 L 100.578125 -144.140625 L 131.109375 -144.140625 L 76.953125 -61.6875 L 76.953125 0 L 51.3125 0 L 51.3125 -61.6875 L -2.84375 -144.140625 Z M 29.3125 -144.140625 "/></g></g></g><g fill="#000000" fill-opacity="1"><g transform="translate(313.421771, 154.28526)"><g><path d="M 161.25 -72.28125 C 161.25 -49.882812 154.019531 -31.625 139.5625 -17.5 C 125.101562 -3.382812 106.609375 3.671875 84.078125 3.671875 C 61.953125 3.671875 43.796875 -3.285156 29.609375 -17.203125 C 15.429688 -31.117188 8.34375 -49.207031 8.34375 -71.46875 C 8.34375 -86.125 11.5 -99.253906 17.8125 -110.859375 C 24.125 -122.460938 33.148438 -131.519531 44.890625 -138.03125 C 56.628906 -144.550781 70.171875 -147.8125 85.515625 -147.8125 C 107.910156 -147.8125 126.128906 -140.957031 140.171875 -127.25 C 154.222656 -113.539062 161.25 -95.21875 161.25 -72.28125 Z M 35.21875 -73.09375 C 35.21875 -57.476562 39.796875 -44.648438 48.953125 -34.609375 C 58.117188 -24.566406 70.03125 -19.546875 84.6875 -19.546875 C 99.21875 -19.546875 111.128906 -24.460938 120.421875 -34.296875 C 129.722656 -44.140625 134.375 -57.070312 134.375 -73.09375 C 134.375 -87.882812 129.757812 -100.164062 120.53125 -109.9375 C 111.300781 -119.707031 99.285156 -124.59375 84.484375 -124.59375 C 70.503906 -124.59375 58.796875 -119.773438 49.359375 -110.140625 C 39.929688 -100.503906 35.21875 -88.15625 35.21875 -73.09375 Z M 35.21875 -73.09375 "/></g></g></g><g fill="#000000" fill-opacity="1"><g transform="translate(481.095678, 154.28526)"><g><path d="M 41.734375 -144.140625 L 41.734375 -23.203125 L 103.015625 -23.203125 L 103.015625 0 L 16.078125 0 L 16.078125 -144.140625 Z M 41.734375 -144.140625 "/></g></g></g><g fill="#000000" fill-opacity="1"><g transform="translate(584.873977, 154.28526)"><g><path d="M 84.90625 -144.140625 L 147 0 L 117.671875 0 L 104.234375 -32.984375 L 41.734375 -32.984375 L 28.703125 0 L 0 0 L 62.703125 -144.140625 Z M 50.484375 -54.96875 L 95.28125 -54.96875 L 73.09375 -113.609375 Z M 50.484375 -54.96875 "/></g></g></g></g></g></g></g></g></svg>